{"title":"Beyond The Clouds (2018) 720p DVDRip ESubs x264 AC3 By-RishiBhai","magnet":"magnet:?xt=urn:btih:b1a3e349bdfe9567acb83f03e94d37a4809c47f1&dn=Beyond+The+Clouds+%282018%29+720p+DVDRip+ESubs+x264+AC3+By-RishiBhai&tr=udp%3A%2F%2Ftracker.leechers-paradise.org%3A6969&tr=udp%3A%2F%2Fzer0day.ch%3A1337&tr=udp%3A%2F%2Fopen.demonii.com%3A1337&tr=udp%3A%2F%2Ftracker.coppersurfer.tk%3A6969&tr=udp%3A%2F%2Fexodus.desync.com%3A6969","uploader":"RishiBhai","categoryP":"video","categoryS":"movies_dvdr","size":"1483648345","seeders":"1","leechers":"5","description":"Complete name                            : Beyond The Clouds (2018) 720p DVDRip ESubs x264 AC3 Encoded By-RishiBhai(RDLinks).mkv\r\nFormat                                   : Matroska\r\nFile size                                : 1.38 GiB\r\nDuration                                 : 2 h 1 min\r\nOverall bit rate                         : 1 623 kb/s\r\nMovie name                               : Encoded By-RishiBhai(RDLinks)\r\n\r\n\r\nVideo\r\nFormat                                   : AVC\r\nFormat/Info                              : Advanced Video Codec\r\nDuration                                 : 2 h 1 min\r\nBit rate                                 : 1 500 kb/s\r\nWidth                                    : 1 422 pixels\r\nHeight                                   : 720 pixels\r\nDisplay aspect ratio                     : 1.975\r\nFrame rate                               : 23.976 (24000/1001) FPS\r\nColor space                              : YUV\r\nChroma subsampling                       : 4:2:0\r\nBit depth                                : 8 bits\r\nScan type                                : Progressive\r\nBits/(Pixel*Frame)                       : 0.061\r\nStream size                              : 1.25 GiB (90%)\r\nWriting library                          : x264 core 155 r2901\r\n\r\n\r\nAudio\r\nID                                       : 2\r\nFormat                                   : AC-3\r\nFormat/Info                              : Audio Coding 3\r\nCodec ID                                 : A_AC3\r\nDuration                                 : 2 h 1 min\r\nBit rate mode                            : Constant\r\nBit rate                                 : 128 kb/s\r\nChannel(s)                               : 2 channels\r\nChannel positions                        : Front: L R\r\nSampling rate                            : 44.1 kHz\r\nFrame rate                               : 28.711 FPS (1536 SPF)\r\nBit depth                                : 16 bits\r\nCompression mode                         : Lossy\r\nDelay relative to video                  : 9 ms\r\nStream size                              : 112 MiB (8%)\r\nWriting library                          : Lavc58.19.104 ac3_fixed\r\nService kind                             : Complete Main\r\nDefault                                  : Yes\r\nForced                                   : No\r\n\r\nEng. subs are muxed with video\r\n\r\nScreenshots:-\r\n <a href=\"\nhttps://extraimage.net/image/se80\" rel=\"nofollow\" target=\"_NEW\">\nhttps://extraimage.net/image/se80</a> <a href=\"\nhttps://extraimage.net/image/se8J\" rel=\"nofollow\" target=\"_NEW\">\nhttps://extraimage.net/image/se8J</a> <a href=\"\nhttps://extraimage.net/image/se8K\" rel=\"nofollow\" target=\"_NEW\">\nhttps://extraimage.net/image/se8K</a> <a href=\"\nhttps://extraimage.net/image/se8Z\" rel=\"nofollow\" target=\"_NEW\">\nhttps://extraimage.net/image/se8Z</a> <a href=\"\nhttps://extraimage.net/image/se8e\" rel=\"nofollow\" target=\"_NEW\">\nhttps://extraimage.net/image/se8e</a> <a href=\"\nhttps://extraimage.net/image/se84\" rel=\"nofollow\" target=\"_NEW\">\nhttps://extraimage.net/image/se84</a>","last_updated":"2018-07-21T12:03:39.289Z","parsed":{"xt":"urn:btih:b1a3e349bdfe9567acb83f03e94d37a4809c47f1","dn":"Beyond The Clouds (2018) 720p DVDRip ESubs x264 AC3 By-RishiBhai","tr":["udp://exodus.desync.com:6969","udp://open.demonii.com:1337","udp://tracker.coppersurfer.tk:6969","udp://tracker.leechers-paradise.org:6969","udp://zer0day.ch:1337"],"infoHash":"b1a3e349bdfe9567acb83f03e94d37a4809c47f1","infoHashBuffer":{"type":"Buffer","data":[177,163,227,73,189,254,149,103,172,184,63,3,233,77,55,164,128,156,71,241]},"name":"Beyond The Clouds (2018) 720p DVDRip ESubs x264 AC3 By-RishiBhai","announce":["udp://exodus.desync.com:6969","udp://open.demonii.com:1337","udp://tracker.coppersurfer.tk:6969","udp://tracker.leechers-paradise.org:6969","udp://zer0day.ch:1337"],"urlList":[]}}